<?xml version="1.0" encoding="UTF-8"?>
<svg width="64" height="64" viewBox="0 0 64 64" xmlns="http://www.w3.org/2000/svg" role="img" aria-label="Redis Cache icon (dark)">
  <defs>
    <linearGradient id="g" x1="0" y1="0" x2="0" y2="1">
      <stop offset="0%" stop-color="#b22f2f"/>
      <stop offset="100%" stop-color="#7a1d1d"/>
    </linearGradient>
  </defs>
  <g fill="none" fill-rule="evenodd">
    <ellipse cx="32" cy="16" rx="22" ry="8" fill="url(#g)"/>
    <path d="M10 16v14c0 4.418 9.85 8 22 8s22-3.582 22-8V16c0 4.418-9.85 8-22 8S10 20.418 10 16z" fill="#8e2424"/>
    <ellipse cx="32" cy="30" rx="22" ry="8" fill="url(#g)"/>
    <path d="M10 30v14c0 4.418 9.85 8 22 8s22-3.582 22-8V30c0 4.418-9.85 8-22 8S10 34.418 10 30z" fill="#6d1a1a"/>
    <polygon points="32,12 34,15 38,16 35,18 36,22 32,20 28,22 29,18 26,16 30,15" fill="#ddd" opacity="0.85"/>
    <text x="32" y="44" text-anchor="middle" font-family="Inter, system-ui, -apple-system, Segoe UI, Roboto, Arial, sans-serif" font-size="10" font-weight="700" fill="#ffffff" stroke="#000000" stroke-width="0.8" paint-order="stroke">
      cache
    </text>
  </g>
</svg>
